# xmcd CD database file
#
# Track frame offsets:
#	150
#	17310
#	31399
#	45986
#	66713
#	77318
#	89762
#	108454
#	119324
#	133907
#	150141
#	164336
#	175798
#	190643
#	203952
#	219494
#	234955
#	243050
#	251464
#	270726
#	286932
#	300195
#	317283
#
# Disc length: 4345 seconds
#
# Revision: 2
# Processed by: cddbd v1.5.2PL0 Copyright (c) Steve Scherf et al.
# Submitted via: CDex 1.82
#
DISCID=2010f717
DTITLE=Maddy Prior and The Carnival Band - The Best Of - A Christmas Caper
DYEAR=2013
DGENRE=Xmas - Folk
TTITLE0=I Saw Three Ships
TTITLE1=While Shepherds Watched
TTITLE2=Angels From The Realms of Glory
TTITLE3=God Rest You Merry Gentlemen
TTITLE4=Monsieur Charpentier's Christmas Swing
TTITLE5=Joy To The World
TTITLE6=See Amid The Winter's Snow
TTITLE7=Poor Little Jesus
TTITLE8=Blake's Cradle Song
TTITLE9=The Coventry Carol
TTITLE10=The Boar's Head
TTITLE11=Ding Dong Merrily On High
TTITLE12=The Holly And The Ivy
TTITLE13=Personent Hodie
TTITLE14=Cradle Song
TTITLE15=Bright Evening Star
TTITLE16=Hark! Hark What News
TTITLE17=Away In A Manger
TTITLE18=The Carnel And The Crane
TTITLE19=Bring Us In Good Ale (2012 Big Band mix)
TTITLE20=MaddLa Danse Carree
TTITLE21=The Quiet Way Home
TTITLE22=Bring Us In Good Ale (2012 edit)
EXTD=YEAR: 2013
EXTT0=
EXTT1=
EXTT2=
EXTT3=
EXTT4=
EXTT5=
EXTT6=
EXTT7=
EXTT8=
EXTT9=
EXTT10=
EXTT11=
EXTT12=
EXTT13=
EXTT14=
EXTT15=
EXTT16=
EXTT17=
EXTT18=
EXTT19=
EXTT20=
EXTT21=
EXTT22=
PLAYORDER=
